<svg width="100" height="50" viewBox="0 0 100 50" fill="none" xmlns="http://www.w3.org/2000/svg">
<path d="M20.5898 24.5106L14.146 28.2004L14.146 20.8208L20.5898 24.5106Z" fill="#FF5151"/>
<path d="M26.2306 25.6624L28.1996 24.5085L14.1484 16.3867V18.7833L26.2306 25.6624Z" fill="#FF5151"/>
<path d="M22.427 25.6172L24.3959 26.7267L14.1484 32.5851V30.3216L22.427 25.6172Z" fill="#FF5151"/>
<path fill-rule="evenodd" clip-rule="evenodd" d="M34.5298 18.3008H37.7696L40.1995 24.67L41.0825 26.9844L44.3953 18.3008H47.6352L42.4809 31.0393H41.4145H39.6841H39.5356L39.6076 30.8503L34.5298 18.3008Z" fill="white"/>
<path fill-rule="evenodd" clip-rule="evenodd" d="M56.9286 15.0617C56.9286 16.2004 56.0056 17.1234 54.8669 17.1234C53.7282 17.1234 52.8052 16.2004 52.8052 15.0617C52.8052 13.9231 53.7282 13 54.8669 13C56.0056 13 56.9286 13.9231 56.9286 15.0617ZM49.7114 18.3008H53.545H56.4856H56.4903V28.4609H60.1673V31.1117H49.7114V28.4609H53.2811L53.4762 20.9516H49.7114V18.3008ZM78.133 18.3008H74.8932L79.8965 30.6661C79.8955 30.6683 79.8946 30.6704 79.8937 30.6725C80.041 31.3352 79.4519 32.4818 78.7156 33.3233C78.3692 33.7192 77.0114 33.2941 76.2658 33.0607C76.1238 33.0162 76.004 32.9787 75.9176 32.9552L74.8867 35.1641C75.4021 35.4587 77.9793 36.4159 79.6728 35.5323C81.2094 34.7307 82.3216 32.3531 82.8446 31.0393H82.8493L88.0036 18.3008H84.7638L82.3339 24.67L81.4484 26.9911L80.5629 24.67L78.133 18.3008ZM65.6184 13H62.3786V30.9664H65.3239L65.345 29.6779C66.317 30.5395 67.9732 31.2863 69.3754 31.3347C71.5107 31.4083 73.6461 29.4202 73.7933 24.4132C73.9406 19.4062 71.2162 17.9335 69.3754 17.9335C67.8157 17.9335 66.5731 18.4093 65.5134 19.4055L65.6184 13ZM65.3798 27.5532L65.4746 21.7745C66.0412 21.1982 66.7335 20.8856 67.6172 20.8084C68.7226 20.7118 70.4347 21.4394 70.6047 24.4066C70.7748 27.3738 69.5951 28.6609 68.309 28.7294C67.2248 28.7871 65.8299 28.1864 65.3798 27.5532Z" fill="white"/>
</svg>
