<svg width="526" height="328" viewBox="0 0 526 328" fill="none" xmlns="http://www.w3.org/2000/svg">
<rect width="246" height="328" rx="16" fill="#211444"/>
<rect x="280" width="246" height="328" rx="16" fill="#211444"/>
<path d="M32 146.4C32 139.552 37.5517 134 44.4 134H174.6C181.448 134 187 139.552 187 146.4V158.794C187 165.642 181.448 171.194 174.6 171.194H44.4C37.5517 171.194 32 165.642 32 158.794V146.4Z" fill="#61587A"/>
<rect opacity="0.2" x="69.5664" y="146" width="44.8183" height="3.95455" rx="1.97728" fill="#0E0034"/>
<rect opacity="0.2" x="69.5664" y="157.227" width="33.9433" height="1.97728" rx="0.988639" fill="#0E0034"/>
<ellipse cx="50.5992" cy="152.399" rx="12.4" ry="12.398" fill="white"/>
<g opacity="0.5">
<path d="M32 196.4C32 189.552 37.5517 184 44.4 184H174.6C181.448 184 187 189.552 187 196.4V208.794C187 215.642 181.448 221.194 174.6 221.194H44.4C37.5517 221.194 32 215.642 32 208.794V196.4Z" fill="#61587A"/>
<rect opacity="0.2" x="69.5664" y="196" width="44.8183" height="3.95455" rx="1.97728" fill="#0E0034"/>
<rect opacity="0.2" x="69.5664" y="207.227" width="33.9433" height="1.97728" rx="0.988639" fill="#0E0034"/>
<ellipse cx="50.5992" cy="202.399" rx="12.4" ry="12.398" fill="white"/>
</g>
<g opacity="0.3">
<path d="M32 246.4C32 239.552 37.5517 234 44.4 234H174.6C181.448 234 187 239.552 187 246.4V258.794C187 265.642 181.448 271.194 174.6 271.194H44.4C37.5517 271.194 32 265.642 32 258.794V246.4Z" fill="#61587A"/>
<rect opacity="0.2" x="69.5664" y="246" width="44.8183" height="3.95455" rx="1.97728" fill="#0E0034"/>
<rect opacity="0.2" x="69.5664" y="257.227" width="33.9433" height="1.97728" rx="0.988639" fill="#0E0034"/>
<ellipse cx="50.5992" cy="252.399" rx="12.4" ry="12.398" fill="white"/>
</g>
<path d="M312 146.4C312 139.552 317.552 134 324.4 134H454.6C461.448 134 467 139.552 467 146.4V158.794C467 165.642 461.448 171.194 454.6 171.194H324.4C317.552 171.194 312 165.642 312 158.794V146.4Z" fill="#61587A"/>
<rect opacity="0.2" x="349.566" y="146" width="44.8183" height="3.95455" rx="1.97728" fill="#0E0034"/>
<rect opacity="0.2" x="349.566" y="157.227" width="33.9433" height="1.97728" rx="0.988639" fill="#0E0034"/>
<ellipse cx="330.599" cy="152.399" rx="12.4" ry="12.398" fill="white"/>
<g opacity="0.5">
<path d="M312 196.4C312 189.552 317.552 184 324.4 184H454.6C461.448 184 467 189.552 467 196.4V208.794C467 215.642 461.448 221.194 454.6 221.194H324.4C317.552 221.194 312 215.642 312 208.794V196.4Z" fill="#61587A"/>
<rect opacity="0.2" x="349.566" y="196" width="44.8183" height="3.95455" rx="1.97728" fill="#0E0034"/>
<rect opacity="0.2" x="349.566" y="207.227" width="33.9433" height="1.97728" rx="0.988639" fill="#0E0034"/>
<ellipse cx="330.599" cy="202.399" rx="12.4" ry="12.398" fill="white"/>
</g>
<g opacity="0.3">
<path d="M312 246.4C312 239.552 317.552 234 324.4 234H454.6C461.448 234 467 239.552 467 246.4V258.794C467 265.642 461.448 271.194 454.6 271.194H324.4C317.552 271.194 312 265.642 312 258.794V246.4Z" fill="#61587A"/>
<rect opacity="0.2" x="349.566" y="246" width="44.8183" height="3.95455" rx="1.97728" fill="#0E0034"/>
<rect opacity="0.2" x="349.566" y="257.227" width="33.9433" height="1.97728" rx="0.988639" fill="#0E0034"/>
<ellipse cx="330.599" cy="252.399" rx="12.4" ry="12.398" fill="white"/>
</g>
<rect x="32" y="47" width="187.204" height="58.3939" rx="16" fill="#2CE272"/>
<rect x="32.5" y="47.5" width="186.204" height="57.3939" rx="15.5" stroke="#352954" stroke-opacity="0.39"/>
<rect x="88.6758" y="60.7422" width="79.0035" height="12.0223" rx="6.01114" fill="white" fill-opacity="0.6"/>
<rect x="88.6748" y="86.5039" width="60.1114" height="5.1524" rx="2.5762" fill="white" fill-opacity="0.4"/>
<rect x="312" y="47" width="187" height="58.3303" rx="16" fill="#61587A"/>
<rect x="312.5" y="47.5" width="186" height="57.3303" rx="15.5" stroke="#352954" stroke-opacity="0.39"/>
<rect x="368.614" y="86.459" width="65.1927" height="5.14679" rx="2.57339" fill="white" fill-opacity="0.4"/>
<rect x="368.615" y="60.7246" width="84.0642" height="12.0092" rx="6.00459" fill="white" fill-opacity="0.6"/>
</svg>
