<svg width="480" height="422" viewBox="0 0 480 422" fill="none" xmlns="http://www.w3.org/2000/svg">
<rect width="480" height="422" rx="16" fill="#0E0034"/>
<circle opacity="0.2" cx="387" cy="87" r="59" fill="black"/>
<path d="M369 70.1098V63C369 54.1634 376.163 47 385 47H388.792H391C399.837 47 407 54.1634 407 63V71" stroke="#FF5151" stroke-width="10"/>
<path fill-rule="evenodd" clip-rule="evenodd" d="M364 75C360.134 75 357 78.134 357 82V116C357 119.866 360.134 123 364 123H413C416.866 123 420 119.866 420 116V82C420 78.134 416.866 75 413 75H364ZM395 96C395 98.3787 393.813 100.48 392 101.745V110C392 112.209 390.209 114 388 114C385.791 114 384 112.209 384 110V101.745C382.187 100.48 381 98.3787 381 96C381 92.134 384.134 89 388 89C391.866 89 395 92.134 395 96Z" fill="#FF5151"/>
<rect x="45" y="200" width="97.2986" height="148.852" rx="24" fill="#61587A"/>
<ellipse cx="94.0138" cy="255.184" rx="27.9552" ry="27.5921" fill="white"/>
<rect opacity="0.2" x="66.2148" y="304.559" width="54.8676" height="7.18296" rx="3.59148" fill="#211444"/>
<rect opacity="0.2" x="69.1406" y="321.258" width="48.2835" height="3.63054" rx="1.81527" fill="#0E0034"/>
<rect x="192" y="200" width="97.2986" height="148.852" rx="24" fill="#61587A"/>
<rect opacity="0.2" x="213.215" y="304.559" width="54.8676" height="7.18296" rx="3.59148" fill="#211444"/>
<rect opacity="0.2" x="216.141" y="321.259" width="48.2835" height="3.63054" rx="1.81527" fill="#0E0034"/>
<rect x="338.703" y="200" width="97.2986" height="148.852" rx="24" fill="#61587A"/>
<rect opacity="0.2" x="359.917" y="304.56" width="54.8676" height="7.18296" rx="3.59148" fill="#211444"/>
<rect opacity="0.2" x="362.843" y="321.26" width="48.2835" height="3.63054" rx="1.81527" fill="#0E0034"/>
<ellipse cx="387.717" cy="255.184" rx="27.9552" ry="27.5921" fill="white"/>
<circle cx="387.761" cy="246.835" r="6.17115" fill="#C4C4C4"/>
<path d="M375.008 268.433C375.008 261.276 380.81 255.474 387.967 255.474C395.125 255.474 400.927 261.276 400.927 268.433V269.05H375.008V268.433Z" fill="#C4C4C4"/>
<ellipse cx="241.014" cy="255.184" rx="27.9552" ry="27.5921" fill="white"/>
<circle cx="240.909" cy="246.835" r="6.17115" fill="#C4C4C4"/>
<path d="M228.156 268.433C228.156 261.276 233.958 255.474 241.116 255.474C248.273 255.474 254.075 261.276 254.075 268.433V269.05H228.156V268.433Z" fill="#C4C4C4"/>
<circle cx="94.0579" cy="246.835" r="6.17115" fill="#C4C4C4"/>
<path d="M81.3047 268.433C81.3047 261.276 87.1068 255.474 94.2641 255.474C101.421 255.474 107.224 261.276 107.224 268.433V269.05H81.3047V268.433Z" fill="#C4C4C4"/>
<rect x="45" y="43" width="237" height="19" rx="9.5" fill="#61587A"/>
<rect x="45" y="94" width="237" height="13" rx="6.5" fill="#61587A"/>
<rect x="45" y="122" width="195" height="13" rx="6.5" fill="#61587A"/>
</svg>
