<svg width="430" height="404" viewBox="0 0 430 404" fill="none" xmlns="http://www.w3.org/2000/svg">
<circle cx="202" cy="202" r="202" fill="white" fill-opacity="0.09"/>
<rect x="29.5" y="84.5566" width="345" height="226" rx="8" fill="#61587A"/>
<g filter="url(#filter0_i)">
<path fill-rule="evenodd" clip-rule="evenodd" d="M37.5 84.5566C33.0817 84.5566 29.5 88.1384 29.5 92.5566V104.557H374.5V92.5566C374.5 88.1384 370.918 84.5566 366.5 84.5566H37.5Z" fill="#211444"/>
</g>
<path fill-rule="evenodd" clip-rule="evenodd" d="M50.5 98.5566C52.7091 98.5566 54.5 96.7658 54.5 94.5566C54.5 92.3475 52.7091 90.5566 50.5 90.5566C48.2909 90.5566 46.5 92.3475 46.5 94.5566C46.5 96.7658 48.2909 98.5566 50.5 98.5566Z" fill="#FF5F57"/>
<path fill-rule="evenodd" clip-rule="evenodd" d="M64.5 98.5566C66.7091 98.5566 68.5 96.7658 68.5 94.5566C68.5 92.3475 66.7091 90.5566 64.5 90.5566C62.2909 90.5566 60.5 92.3475 60.5 94.5566C60.5 96.7658 62.2909 98.5566 64.5 98.5566Z" fill="#FFBD2E"/>
<path fill-rule="evenodd" clip-rule="evenodd" d="M78.5 98.5566C80.7091 98.5566 82.5 96.7658 82.5 94.5566C82.5 92.3475 80.7091 90.5566 78.5 90.5566C76.2909 90.5566 74.5 92.3475 74.5 94.5566C74.5 96.7658 76.2909 98.5566 78.5 98.5566Z" fill="#28CA42"/>
<rect opacity="0.23" x="145.5" y="90.5566" width="112" height="8" rx="2" fill="#7F7895"/>
<rect x="47" y="116" width="309.408" height="82.9717" rx="8" fill="#352954"/>
<circle opacity="0.2" cx="309.839" cy="157.485" r="25.2217" fill="black"/>
<path d="M303.473 153.594V152.511C303.473 148.943 306.365 146.051 309.933 146.051V146.051V146.051C313.216 146.051 315.877 148.712 315.877 151.995V153.885" stroke="#FF5151" stroke-width="4"/>
<mask id="path-11-inside-1" fill="white">
<path fill-rule="evenodd" clip-rule="evenodd" d="M306.555 155.191C302.689 155.191 299.555 158.325 299.555 162.191V163.86C299.555 167.726 302.689 170.86 306.555 170.86H313.12C316.986 170.86 320.12 167.726 320.12 163.86V162.191C320.12 158.325 316.986 155.191 313.12 155.191H306.555ZM311.961 162.047C311.961 162.823 311.574 163.508 310.983 163.921V166.617C310.983 167.338 310.398 167.923 309.677 167.923C308.956 167.923 308.371 167.338 308.371 166.617V163.923C307.778 163.51 307.391 162.824 307.391 162.047C307.391 160.785 308.414 159.762 309.676 159.762C310.938 159.762 311.961 160.785 311.961 162.047Z"/>
</mask>
<path fill-rule="evenodd" clip-rule="evenodd" d="M306.555 155.191C302.689 155.191 299.555 158.325 299.555 162.191V163.86C299.555 167.726 302.689 170.86 306.555 170.86H313.12C316.986 170.86 320.12 167.726 320.12 163.86V162.191C320.12 158.325 316.986 155.191 313.12 155.191H306.555ZM311.961 162.047C311.961 162.823 311.574 163.508 310.983 163.921V166.617C310.983 167.338 310.398 167.923 309.677 167.923C308.956 167.923 308.371 167.338 308.371 166.617V163.923C307.778 163.51 307.391 162.824 307.391 162.047C307.391 160.785 308.414 159.762 309.676 159.762C310.938 159.762 311.961 160.785 311.961 162.047Z" fill="#FF5151"/>
<path d="M310.983 163.921L310.41 163.102L309.983 163.4V163.921H310.983ZM308.371 163.923H309.371V163.401L308.943 163.102L308.371 163.923ZM300.555 162.191C300.555 158.878 303.241 156.191 306.555 156.191V154.191C302.136 154.191 298.555 157.773 298.555 162.191H300.555ZM300.555 163.86V162.191H298.555V163.86H300.555ZM306.555 169.86C303.241 169.86 300.555 167.174 300.555 163.86H298.555C298.555 168.278 302.136 171.86 306.555 171.86V169.86ZM313.12 169.86H306.555V171.86H313.12V169.86ZM319.12 163.86C319.12 167.174 316.433 169.86 313.12 169.86V171.86C317.538 171.86 321.12 168.278 321.12 163.86H319.12ZM319.12 162.191V163.86H321.12V162.191H319.12ZM313.12 156.191C316.433 156.191 319.12 158.878 319.12 162.191H321.12C321.12 157.773 317.538 154.191 313.12 154.191V156.191ZM306.555 156.191H313.12V154.191H306.555V156.191ZM311.555 164.741C312.403 164.149 312.961 163.163 312.961 162.047H310.961C310.961 162.482 310.745 162.868 310.41 163.102L311.555 164.741ZM311.983 166.617V163.921H309.983V166.617H311.983ZM309.677 168.923C310.95 168.923 311.983 167.89 311.983 166.617H309.983C309.983 166.786 309.846 166.923 309.677 166.923V168.923ZM307.371 166.617C307.371 167.89 308.403 168.923 309.677 168.923V166.923C309.508 166.923 309.371 166.786 309.371 166.617H307.371ZM307.371 163.923V166.617H309.371V163.923H307.371ZM306.391 162.047C306.391 163.165 306.95 164.152 307.8 164.744L308.943 163.102C308.607 162.869 308.391 162.483 308.391 162.047H306.391ZM309.676 158.762C307.861 158.762 306.391 160.232 306.391 162.047H308.391C308.391 161.337 308.966 160.762 309.676 160.762V158.762ZM312.961 162.047C312.961 160.232 311.49 158.762 309.676 158.762V160.762C310.385 160.762 310.961 161.337 310.961 162.047H312.961Z" fill="#FF5151" mask="url(#path-11-inside-1)"/>
<rect x="68.8359" y="136.234" width="189.164" height="8.77824" rx="4.38912" fill="#61587A"/>
<rect x="68.8359" y="159.798" width="86.0723" height="6.00617" rx="3.00308" fill="#61587A"/>
<rect x="68.8359" y="172.732" width="121.572" height="6.00617" rx="3.00308" fill="#61587A"/>
<rect x="46.5" y="215" width="170" height="82" rx="10" fill="#352954"/>
<path d="M140.223 256.141H141.668C142.397 256.134 142.973 255.945 143.396 255.574C143.826 255.203 144.041 254.666 144.041 253.963C144.041 253.286 143.862 252.762 143.504 252.391C143.152 252.013 142.612 251.824 141.883 251.824C141.245 251.824 140.721 252.01 140.311 252.381C139.9 252.745 139.695 253.224 139.695 253.816H137.322C137.322 253.087 137.514 252.423 137.898 251.824C138.289 251.225 138.829 250.76 139.52 250.428C140.216 250.089 140.994 249.92 141.854 249.92C143.273 249.92 144.386 250.278 145.193 250.994C146.007 251.704 146.414 252.693 146.414 253.963C146.414 254.601 146.209 255.203 145.799 255.77C145.395 256.329 144.871 256.753 144.227 257.039C145.008 257.306 145.6 257.726 146.004 258.299C146.414 258.872 146.619 259.555 146.619 260.35C146.619 261.626 146.18 262.641 145.301 263.396C144.428 264.152 143.279 264.529 141.854 264.529C140.486 264.529 139.367 264.165 138.494 263.436C137.622 262.706 137.186 261.736 137.186 260.525H139.559C139.559 261.15 139.767 261.658 140.184 262.049C140.607 262.439 141.173 262.635 141.883 262.635C142.618 262.635 143.198 262.439 143.621 262.049C144.044 261.658 144.256 261.092 144.256 260.35C144.256 259.601 144.035 259.025 143.592 258.621C143.149 258.217 142.492 258.016 141.619 258.016H140.223V256.141ZM155.574 258.387C154.78 259.227 153.852 259.646 152.791 259.646C151.541 259.646 150.545 259.21 149.803 258.338C149.061 257.459 148.689 256.307 148.689 254.881C148.689 253.943 148.878 253.094 149.256 252.332C149.633 251.57 150.171 250.978 150.867 250.555C151.564 250.132 152.371 249.92 153.289 249.92C154.721 249.92 155.857 250.454 156.697 251.521C157.537 252.589 157.957 254.018 157.957 255.809V256.473C157.957 259.038 157.378 260.994 156.219 262.342C155.06 263.689 153.331 264.373 151.033 264.393H150.75V262.43H151.092C152.492 262.41 153.566 262.075 154.314 261.424C155.063 260.766 155.483 259.754 155.574 258.387ZM153.289 257.791C153.764 257.791 154.21 257.654 154.627 257.381C155.044 257.107 155.366 256.73 155.594 256.248V255.32C155.594 254.272 155.379 253.429 154.949 252.791C154.52 252.153 153.963 251.834 153.279 251.834C152.596 251.834 152.049 252.117 151.639 252.684C151.235 253.243 151.033 253.953 151.033 254.812C151.033 255.704 151.238 256.424 151.648 256.971C152.059 257.518 152.605 257.791 153.289 257.791ZM167.146 260.623C167.146 260.07 166.971 259.614 166.619 259.256C166.268 258.891 165.682 258.566 164.861 258.279C164.041 257.986 163.403 257.716 162.947 257.469C161.43 256.655 160.672 255.451 160.672 253.855C160.672 252.775 161.001 251.886 161.658 251.189C162.316 250.493 163.208 250.079 164.334 249.949V247.82H165.896V249.969C167.029 250.132 167.905 250.613 168.523 251.414C169.142 252.208 169.451 253.243 169.451 254.52H167.088C167.088 253.699 166.902 253.055 166.531 252.586C166.167 252.111 165.669 251.873 165.037 251.873C164.412 251.873 163.924 252.042 163.572 252.381C163.221 252.719 163.045 253.204 163.045 253.836C163.045 254.402 163.217 254.858 163.562 255.203C163.914 255.542 164.507 255.864 165.34 256.17C166.173 256.476 166.827 256.759 167.303 257.02C167.778 257.28 168.178 257.579 168.504 257.918C168.829 258.25 169.08 258.634 169.256 259.07C169.432 259.507 169.52 260.018 169.52 260.604C169.52 261.704 169.181 262.596 168.504 263.279C167.833 263.963 166.896 264.367 165.691 264.49V266.395H164.139V264.5C162.85 264.357 161.857 263.895 161.16 263.113C160.47 262.332 160.125 261.297 160.125 260.008H162.498C162.498 260.828 162.703 261.463 163.113 261.912C163.53 262.361 164.116 262.586 164.871 262.586C165.613 262.586 166.176 262.407 166.561 262.049C166.951 261.691 167.146 261.215 167.146 260.623Z" fill="#2CE272"/>
<circle cx="89.6641" cy="258" r="27" fill="white" fill-opacity="0.07"/>
<path d="M75.4141 264.334L83.3307 256.417" stroke="#2CE272" stroke-width="2" stroke-linecap="round" stroke-linejoin="round"/>
<path d="M84.9154 256.417C85.7898 256.417 86.4987 255.708 86.4987 254.833C86.4987 253.959 85.7898 253.25 84.9154 253.25C84.0409 253.25 83.332 253.959 83.332 254.833C83.332 255.708 84.0409 256.417 84.9154 256.417Z" stroke="#2CE272" stroke-width="2" stroke-linecap="round" stroke-linejoin="round"/>
<path d="M92.8294 264.333C93.7039 264.333 94.4128 263.624 94.4128 262.749C94.4128 261.875 93.7039 261.166 92.8294 261.166C91.955 261.166 91.2461 261.875 91.2461 262.749C91.2461 263.624 91.955 264.333 92.8294 264.333Z" stroke="#2CE272" stroke-width="2" stroke-linecap="round" stroke-linejoin="round"/>
<path d="M94.4128 261.166L103.913 251.666M86.4961 256.416L91.2461 261.166L86.4961 256.416Z" stroke="#2CE272" stroke-width="2" stroke-linecap="round" stroke-linejoin="round"/>
<path d="M189 200C189 197.791 190.791 196 193 196H426C428.209 196 430 197.791 430 200V292C430 305.255 419.255 316 406 316H193C190.791 316 189 314.209 189 312V200Z" fill="white"/>
<path d="M201.066 282.043V301.926" stroke="#FF5151" stroke-width="2"/>
<path d="M207.317 282.043V301.926" stroke="#FF5151" stroke-width="2"/>
<path d="M212.785 282.043V301.926" stroke="#FF5151"/>
<path d="M216.578 281.918V301.801" stroke="#FF5151" stroke-width="2"/>
<path d="M220.559 281.918V301.801" stroke="#FF5151" stroke-width="2"/>
<path d="M203.845 282.043V301.926" stroke="#FF5151"/>
<line x1="237.06" y1="196" x2="237.06" y2="316" stroke="#FF5151" stroke-width="2" stroke-dasharray="16 16"/>
<rect x="255.781" y="206.975" width="86.1406" height="10.9751" rx="5.48753" fill="#FF5151"/>
<rect x="348.004" y="207.33" width="34.2249" height="10.6667" rx="5.33333" fill="#FF5151"/>
<rect x="277" y="275.818" width="81" height="4.98866" rx="2.49433" fill="#FF5151"/>
<rect x="363" y="275.818" width="19" height="4.98866" rx="2.49433" fill="#FF5151"/>
<rect x="277" y="286.794" width="30" height="3.99093" rx="1.99546" fill="#FF5151"/>
<rect x="312" y="286.794" width="70" height="3.99093" rx="1.99546" fill="#FF5151"/>
<rect x="277" y="296.771" width="66" height="4.98866" rx="2.49433" fill="#FF5151"/>
<defs>
<filter id="filter0_i" x="29.5" y="84.5566" width="345" height="20" filterUnits="userSpaceOnUse" color-interpolation-filters="sRGB">
<feFlood flood-opacity="0" result="BackgroundImageFix"/>
<feBlend mode="normal" in="SourceGraphic" in2="BackgroundImageFix" result="shape"/>
<feColorMatrix in="SourceAlpha" type="matrix" values="0 0 0 0 0 0 0 0 0 0 0 0 0 0 0 0 0 0 127 0" result="hardAlpha"/>
<feOffset dy="1"/>
<feComposite in2="hardAlpha" operator="arithmetic" k2="-1" k3="1"/>
<feColorMatrix type="matrix" values="0 0 0 0 1 0 0 0 0 1 0 0 0 0 1 0 0 0 0.04 0"/>
<feBlend mode="normal" in2="shape" result="effect1_innerShadow"/>
</filter>
</defs>
</svg>
