<svg width="469" height="404" viewBox="0 0 469 404" fill="none" xmlns="http://www.w3.org/2000/svg">
<circle cx="202" cy="202" r="202" fill="white" fill-opacity="0.09"/>
<rect x="16" y="82" width="372" height="243" rx="8" fill="#61587A"/>
<g filter="url(#filter0_i)">
<path fill-rule="evenodd" clip-rule="evenodd" d="M24 82C19.5817 82 16 85.5817 16 90V103.504H388V90C388 85.5817 384.418 82 380 82H24Z" fill="#211444"/>
</g>
<path fill-rule="evenodd" clip-rule="evenodd" d="M38.6446 97.0539C41.0266 97.0539 42.9576 95.1283 42.9576 92.753C42.9576 90.3777 41.0266 88.4521 38.6446 88.4521C36.2626 88.4521 34.3315 90.3777 34.3315 92.753C34.3315 95.1283 36.2626 97.0539 38.6446 97.0539Z" fill="#FF5F57"/>
<path fill-rule="evenodd" clip-rule="evenodd" d="M53.7388 97.0539C56.1209 97.0539 58.0519 95.1283 58.0519 92.753C58.0519 90.3777 56.1209 88.4521 53.7388 88.4521C51.3568 88.4521 49.4258 90.3777 49.4258 92.753C49.4258 95.1283 51.3568 97.0539 53.7388 97.0539Z" fill="#FFBD2E"/>
<path fill-rule="evenodd" clip-rule="evenodd" d="M68.837 97.0539C71.219 97.0539 73.15 95.1283 73.15 92.753C73.15 90.3777 71.219 88.4521 68.837 88.4521C66.4549 88.4521 64.5239 90.3777 64.5239 92.753C64.5239 95.1283 66.4549 97.0539 68.837 97.0539Z" fill="#28CA42"/>
<rect opacity="0.23" x="141.078" y="88.4512" width="120.765" height="8.60177" rx="2" fill="#7F7895"/>
<rect x="48" y="159" width="146" height="126" rx="4" fill="#211444" fill-opacity="0.71"/>
<rect x="210" y="159" width="146" height="126" rx="4" fill="#0E0034"/>
<rect x="261" y="200" width="45" height="4" rx="2" fill="white" fill-opacity="0.32"/>
<rect x="105" y="200" width="32" height="4" rx="2" fill="white" fill-opacity="0.32"/>
<rect x="245" y="185" width="76" height="8" rx="4" fill="white" fill-opacity="0.58"/>
<rect x="87" y="185" width="68" height="8" rx="4" fill="white" fill-opacity="0.58"/>
<rect x="80" y="239" width="82" height="18" rx="8" fill="#2CE272"/>
<rect x="242" y="239" width="82" height="18" rx="8" fill="#FF5151"/>
<rect x="96" y="246" width="50" height="4" rx="2" fill="white" fill-opacity="0.53"/>
<rect x="258" y="246" width="50" height="4" rx="2" fill="white" fill-opacity="0.53"/>
<rect x="304" y="39" width="165" height="106" rx="8" fill="#FF5151"/>
<rect x="304.15" y="39.15" width="164.7" height="105.7" rx="7.85" stroke="white" stroke-opacity="0.24" stroke-width="0.3"/>
<path d="M367.666 93.96H356.979V105H351.412V77.9844H369.002V82.4932H356.979V89.4697H367.666V93.96ZM383.817 89.9521C383.087 89.8532 382.444 89.8037 381.887 89.8037C379.858 89.8037 378.529 90.4902 377.898 91.8633V105H372.536V84.9238H377.601L377.749 87.3174C378.826 85.4743 380.316 84.5527 382.221 84.5527C382.815 84.5527 383.371 84.6331 383.891 84.7939L383.817 89.9521ZM396.424 105.371C393.48 105.371 391.08 104.468 389.224 102.662C387.381 100.856 386.46 98.4502 386.46 95.4443V94.9248C386.46 92.9085 386.849 91.1087 387.629 89.5254C388.408 87.9297 389.509 86.7051 390.931 85.8516C392.366 84.9857 393.999 84.5527 395.83 84.5527C398.576 84.5527 400.734 85.4186 402.305 87.1504C403.889 88.8822 404.68 91.3376 404.68 94.5166V96.7061H391.896C392.069 98.0173 392.589 99.0687 393.455 99.8604C394.333 100.652 395.44 101.048 396.776 101.048C398.842 101.048 400.456 100.299 401.619 98.8027L404.254 101.753C403.45 102.891 402.361 103.782 400.988 104.425C399.615 105.056 398.093 105.371 396.424 105.371ZM395.811 88.8945C394.747 88.8945 393.882 89.2533 393.214 89.9707C392.558 90.6882 392.137 91.7148 391.952 93.0508H399.411V92.624C399.386 91.4365 399.065 90.5212 398.446 89.8779C397.828 89.2223 396.949 88.8945 395.811 88.8945ZM418.122 105.371C415.178 105.371 412.778 104.468 410.923 102.662C409.08 100.856 408.158 98.4502 408.158 95.4443V94.9248C408.158 92.9085 408.548 91.1087 409.327 89.5254C410.107 87.9297 411.207 86.7051 412.63 85.8516C414.065 84.9857 415.698 84.5527 417.528 84.5527C420.274 84.5527 422.433 85.4186 424.004 87.1504C425.587 88.8822 426.379 91.3376 426.379 94.5166V96.7061H413.595C413.768 98.0173 414.288 99.0687 415.153 99.8604C416.032 100.652 417.139 101.048 418.475 101.048C420.54 101.048 422.155 100.299 423.317 98.8027L425.952 101.753C425.148 102.891 424.06 103.782 422.687 104.425C421.314 105.056 419.792 105.371 418.122 105.371ZM417.51 88.8945C416.446 88.8945 415.58 89.2533 414.912 89.9707C414.257 90.6882 413.836 91.7148 413.65 93.0508H421.109V92.624C421.085 91.4365 420.763 90.5212 420.145 89.8779C419.526 89.2223 418.648 88.8945 417.51 88.8945Z" fill="#FFDBDB"/>
<path d="M313.305 275.075C312.686 274.25 312.068 272.806 310.83 270.95C310.211 269.919 308.355 267.856 307.736 267.031C307.324 266.206 307.324 265.794 307.53 264.969C307.736 263.731 308.974 262.7 310.418 262.7C311.449 262.7 312.48 263.525 313.305 264.144C313.718 264.556 314.336 265.381 314.749 265.794C315.161 266.206 315.161 266.412 315.574 266.825C315.986 267.444 316.193 267.856 315.986 267.031C315.78 266 315.574 264.35 315.161 262.7C314.955 261.462 314.749 261.256 314.543 260.431C314.336 259.4 314.13 258.781 313.924 257.75C313.718 257.131 313.511 255.481 313.305 254.656C313.099 253.625 313.099 251.769 313.924 250.944C314.543 250.325 315.78 250.119 316.605 250.531C317.636 251.15 318.255 252.594 318.461 253.212C318.874 254.244 319.286 255.687 319.493 257.337C319.905 259.4 320.524 262.494 320.524 263.112C320.524 262.287 320.318 260.844 320.524 260.019C320.73 259.4 321.143 258.575 321.968 258.369C322.586 258.162 323.205 258.162 323.824 258.162C324.443 258.369 325.061 258.781 325.474 259.194C326.299 260.431 326.299 263.112 326.299 262.906C326.505 262.081 326.505 260.431 326.918 259.606C327.124 259.194 327.949 258.781 328.361 258.575C328.98 258.369 329.805 258.369 330.424 258.575C330.836 258.575 331.661 259.194 331.868 259.606C332.28 260.225 332.486 262.287 332.693 263.112C332.693 263.319 332.899 262.287 333.311 261.669C334.136 260.431 337.024 260.019 337.23 262.906C337.23 264.35 337.23 264.144 337.23 265.175C337.23 266.206 337.23 266.825 337.23 267.65C337.23 268.475 337.024 270.331 336.818 271.156C336.611 271.775 335.993 273.219 335.374 274.044C335.374 274.044 333.105 276.519 332.899 277.756C332.693 278.994 332.693 278.994 332.693 279.819C332.693 280.644 332.899 281.675 332.899 281.675C332.899 281.675 331.249 281.881 330.424 281.675C329.599 281.469 328.568 280.025 328.361 279.406C327.949 278.787 327.33 278.787 326.918 279.406C326.505 280.231 325.474 281.675 324.649 281.675C323.205 281.881 320.318 281.675 318.255 281.675C318.255 281.675 318.668 279.612 317.843 278.787C317.224 278.169 316.193 277.137 315.574 276.519L313.305 275.075Z" fill="white"/>
<path d="M313.305 275.075C312.686 274.25 312.068 272.806 310.83 270.95C310.211 269.919 308.355 267.856 307.736 267.031C307.324 266.206 307.324 265.794 307.53 264.969C307.736 263.731 308.974 262.7 310.418 262.7C311.449 262.7 312.48 263.525 313.305 264.144C313.718 264.556 314.336 265.381 314.749 265.794C315.161 266.206 315.161 266.412 315.574 266.825C315.986 267.444 316.193 267.856 315.986 267.031C315.78 266 315.574 264.35 315.161 262.7C314.955 261.462 314.749 261.256 314.543 260.431C314.336 259.4 314.13 258.781 313.924 257.75C313.718 257.131 313.511 255.481 313.305 254.656C313.099 253.625 313.099 251.769 313.924 250.944C314.543 250.325 315.78 250.119 316.605 250.531C317.636 251.15 318.255 252.594 318.461 253.212C318.874 254.244 319.286 255.687 319.493 257.337C319.905 259.4 320.524 262.494 320.524 263.112C320.524 262.287 320.318 260.844 320.524 260.019C320.73 259.4 321.143 258.575 321.968 258.369C322.586 258.162 323.205 258.162 323.824 258.162C324.443 258.369 325.061 258.781 325.474 259.194C326.299 260.431 326.299 263.112 326.299 262.906C326.505 262.081 326.505 260.431 326.918 259.606C327.124 259.194 327.949 258.781 328.361 258.575C328.98 258.369 329.805 258.369 330.424 258.575C330.836 258.575 331.661 259.194 331.868 259.606C332.28 260.225 332.486 262.287 332.693 263.112C332.693 263.319 332.899 262.287 333.311 261.669C334.136 260.431 337.024 260.019 337.23 262.906C337.23 264.35 337.23 264.144 337.23 265.175C337.23 266.206 337.23 266.825 337.23 267.65C337.23 268.475 337.024 270.331 336.818 271.156C336.611 271.775 335.993 273.219 335.374 274.044C335.374 274.044 333.105 276.519 332.899 277.756C332.693 278.994 332.693 278.994 332.693 279.819C332.693 280.644 332.899 281.675 332.899 281.675C332.899 281.675 331.249 281.881 330.424 281.675C329.599 281.469 328.568 280.025 328.361 279.406C327.949 278.787 327.33 278.787 326.918 279.406C326.505 280.231 325.474 281.675 324.649 281.675C323.205 281.881 320.318 281.675 318.255 281.675C318.255 281.675 318.668 279.612 317.843 278.787C317.224 278.169 316.193 277.137 315.574 276.519L313.305 275.075Z" stroke="black" stroke-width="0.75" stroke-linecap="round" stroke-linejoin="round"/>
<path d="M330.422 275.694V268.682" stroke="black" stroke-width="0.75" stroke-linecap="round"/>
<path d="M326.299 275.694L326.093 268.682" stroke="black" stroke-width="0.75" stroke-linecap="round"/>
<path d="M322.172 268.682V275.694" stroke="black" stroke-width="0.75" stroke-linecap="round"/>
<defs>
<filter id="filter0_i" x="16" y="82" width="372" height="21.5044" filterUnits="userSpaceOnUse" color-interpolation-filters="sRGB">
<feFlood flood-opacity="0" result="BackgroundImageFix"/>
<feBlend mode="normal" in="SourceGraphic" in2="BackgroundImageFix" result="shape"/>
<feColorMatrix in="SourceAlpha" type="matrix" values="0 0 0 0 0 0 0 0 0 0 0 0 0 0 0 0 0 0 127 0" result="hardAlpha"/>
<feOffset dy="1"/>
<feComposite in2="hardAlpha" operator="arithmetic" k2="-1" k3="1"/>
<feColorMatrix type="matrix" values="0 0 0 0 1 0 0 0 0 1 0 0 0 0 1 0 0 0 0.04 0"/>
<feBlend mode="normal" in2="shape" result="effect1_innerShadow"/>
</filter>
</defs>
</svg>
