<svg width="32" height="23" viewBox="0 0 32 23" fill="none" xmlns="http://www.w3.org/2000/svg">
<path fill-rule="evenodd" clip-rule="evenodd" d="M8.16629 17.1544C7.47024 15.8941 7.08408 14.502 7.08408 13.0386C7.08408 7.6205 12.3769 3.1811 19.0926 2.78413C17.0803 1.07139 14.2087 0 11.021 0C4.93426 0 0 3.90629 0 8.72495C0 10.8439 0.954129 12.7864 2.54082 14.2979C2.03925 15.4904 1.41584 16.6318 0.678375 17.7033L0.527585 17.9224H1.30201C3.35037 17.9224 5.38146 17.5912 7.31748 16.945C7.59543 17.0235 7.87854 17.0934 8.16629 17.1544Z" fill="#2CE272"/>
<path fill-rule="evenodd" clip-rule="evenodd" d="M20.2056 22.0417C14.1189 22.0417 9.18459 18.1354 9.18459 13.3167C9.18459 8.49809 14.1189 4.5918 20.2056 4.5918C26.2923 4.5918 31.2266 8.49809 31.2266 13.3167C31.2266 15.4357 30.2724 17.3782 28.6858 18.8897C29.1873 20.0822 29.8108 21.2236 30.5482 22.2952L30.699 22.5143H29.9246C27.8762 22.5143 25.8451 22.1831 23.9091 21.5368C22.7516 21.8637 21.5048 22.0417 20.2056 22.0417Z" fill="#2CE272"/>
</svg>
