<svg width="33" height="24" viewBox="0 0 33 24" fill="none" xmlns="http://www.w3.org/2000/svg">
<path d="M0 7.74175C0 7.18159 0.350428 6.68128 0.876854 6.48985L15.4748 1.18142C16.137 0.940584 16.863 0.940583 17.5252 1.18142L32.1231 6.48985C32.6496 6.68128 33 7.18159 33 7.74175C33 8.36537 32.5674 8.90552 31.9588 9.0417L17.1551 12.3542C16.7237 12.4507 16.2763 12.4507 15.8449 12.3542L1.04122 9.0417C0.432648 8.90552 0 8.36537 0 7.74175Z" fill="#2CE272"/>
<path d="M0 7.74175C0 7.18159 0.350428 6.68128 0.876854 6.48985L15.4748 1.18142C16.137 0.940584 16.863 0.940583 17.5252 1.18142L32.1231 6.48985C32.6496 6.68128 33 7.18159 33 7.74175C33 8.36537 32.5674 8.90552 31.9588 9.0417L17.1551 12.3542C16.7237 12.4507 16.2763 12.4507 15.8449 12.3542L1.04122 9.0417C0.432648 8.90552 0 8.36537 0 7.74175Z" fill="#2CE272"/>
<path fill-rule="evenodd" clip-rule="evenodd" d="M0 7.71141C0 7.16899 0.339331 6.68453 0.849086 6.49916L15.4748 1.18063C16.137 0.939791 16.863 0.939791 17.5252 1.18063L32.1509 6.49916C32.6607 6.68453 33 7.16899 33 7.71141C33 8.17125 32.7576 8.58179 32.3853 8.81066C32.3041 8.75876 32.2164 8.71516 32.1231 8.68126L17.5252 3.37282C16.863 3.13199 16.137 3.13199 15.4748 3.37283L0.876854 8.68126C0.783618 8.71516 0.695904 8.75876 0.614679 8.81066C0.242404 8.58179 0 8.17124 0 7.71141ZM7 12.5664V20.3464L15.8153 23.5583C16.2576 23.7195 16.7424 23.7195 17.1847 23.5583L26 20.3464V12.5664L17.1551 14.5456C16.7237 14.6421 16.2763 14.6421 15.8449 14.5456L7 12.5664ZM29 11.8952V14.0755C28.4022 14.4213 28 15.0676 28 15.8079C28 16.9125 28.8954 17.8079 30 17.8079C31.1046 17.8079 32 16.9125 32 15.8079C32 15.0676 31.5978 14.4213 31 14.0755V11.4476L29 11.8952Z" fill="#2CE272"/>
</svg>
