<svg width="52" height="52" viewBox="0 0 52 52" fill="none" xmlns="http://www.w3.org/2000/svg">
<circle opacity="0.26" cx="26" cy="26" r="26" fill="#61587A"/>
<path fill-rule="evenodd" clip-rule="evenodd" d="M26.1525 13.3879C24.2444 14.7475 23 16.9785 23 19.5C23 20.7034 23.2834 21.8406 23.7872 22.8486C23.3743 22.9476 22.9433 23 22.5 23C19.4624 23 17 20.5376 17 17.5C17 14.4624 19.4624 12 22.5 12C23.9018 12 25.1812 12.5245 26.1525 13.3879Z" fill="#2CE272"/>
<path fill-rule="evenodd" clip-rule="evenodd" d="M21.5 25C16.2533 25 12 29.2533 12 34.5H18.3623C19.4071 30.2586 22.617 26.8693 26.7526 25.5714C25.738 25.2017 24.6425 25 23.5 25H21.5Z" fill="#2CE272"/>
<circle cx="30.5" cy="19.5" r="5.5" fill="#2CE272"/>
<path d="M20 37C20 31.4772 24.4772 27 30 27H31C36.5228 27 41 31.4772 41 37H20Z" fill="#2CE272"/>
</svg>
