<svg width="52" height="52" viewBox="0 0 52 52" fill="none" xmlns="http://www.w3.org/2000/svg">
<circle opacity="0.26" cx="26" cy="26" r="26" fill="#61587A"/>
<path fill-rule="evenodd" clip-rule="evenodd" d="M19.1663 32.1544C18.4702 30.8941 18.0841 29.502 18.0841 28.0386C18.0841 22.6205 23.3769 18.1811 30.0926 17.7841C28.0803 16.0714 25.2087 15 22.021 15C15.9343 15 11 18.9063 11 23.7249C11 25.8439 11.9541 27.7864 13.5408 29.2979C13.0392 30.4904 12.4158 31.6318 11.6784 32.7033L11.5276 32.9224H12.302C14.3504 32.9224 16.3815 32.5912 18.3175 31.945C18.5954 32.0235 18.8785 32.0934 19.1663 32.1544Z" fill="#2CE272"/>
<path fill-rule="evenodd" clip-rule="evenodd" d="M31.2056 37.0417C25.1189 37.0417 20.1846 33.1354 20.1846 28.3167C20.1846 23.4981 25.1189 19.5918 31.2056 19.5918C37.2923 19.5918 42.2266 23.4981 42.2266 28.3167C42.2266 30.4357 41.2724 32.3782 39.6858 33.8897C40.1873 35.0822 40.8108 36.2236 41.5482 37.2952L41.699 37.5143H40.9246C38.8762 37.5143 36.8451 37.1831 34.9091 36.5368C33.7516 36.8637 32.5048 37.0417 31.2056 37.0417Z" fill="#2CE272"/>
</svg>
