<svg width="52" height="52" viewBox="0 0 52 52" fill="none" xmlns="http://www.w3.org/2000/svg">
<circle opacity="0.26" cx="26" cy="26" r="26" fill="#61587A"/>
<path d="M9 21.7417C9 21.1816 9.35043 20.6813 9.87685 20.4899L24.4748 15.1814C25.137 14.9406 25.863 14.9406 26.5252 15.1814L41.1231 20.4899C41.6496 20.6813 42 21.1816 42 21.7417C42 22.3654 41.5674 22.9055 40.9588 23.0417L26.1551 26.3542C25.7237 26.4507 25.2763 26.4507 24.8449 26.3542L10.0412 23.0417C9.43265 22.9055 9 22.3654 9 21.7417Z" fill="#2CE272"/>
<path d="M9 21.7417C9 21.1816 9.35043 20.6813 9.87685 20.4899L24.4748 15.1814C25.137 14.9406 25.863 14.9406 26.5252 15.1814L41.1231 20.4899C41.6496 20.6813 42 21.1816 42 21.7417C42 22.3654 41.5674 22.9055 40.9588 23.0417L26.1551 26.3542C25.7237 26.4507 25.2763 26.4507 24.8449 26.3542L10.0412 23.0417C9.43265 22.9055 9 22.3654 9 21.7417Z" fill="#2CE272"/>
<path fill-rule="evenodd" clip-rule="evenodd" d="M9 21.7114C9 21.169 9.33933 20.6845 9.84909 20.4992L24.4748 15.1806C25.137 14.9398 25.863 14.9398 26.5252 15.1806L41.1509 20.4992C41.6607 20.6845 42 21.169 42 21.7114C42 22.1712 41.7576 22.5818 41.3853 22.8107C41.3041 22.7588 41.2164 22.7152 41.1231 22.6813L26.5252 17.3728C25.863 17.132 25.137 17.132 24.4748 17.3728L9.87685 22.6813C9.78362 22.7152 9.6959 22.7588 9.61468 22.8107C9.2424 22.5818 9 22.1712 9 21.7114ZM16 26.5664V34.3464L24.8153 37.5583C25.2576 37.7195 25.7424 37.7195 26.1847 37.5583L35 34.3464V26.5664L26.1551 28.5456C25.7237 28.6421 25.2763 28.6421 24.8449 28.5456L16 26.5664ZM38 25.8952V28.0755C37.4022 28.4213 37 29.0676 37 29.8079C37 30.9125 37.8954 31.8079 39 31.8079C40.1046 31.8079 41 30.9125 41 29.8079C41 29.0676 40.5978 28.4213 40 28.0755V25.4476L38 25.8952Z" fill="#2CE272"/>
</svg>
