<svg width="29" height="25" viewBox="0 0 29 25" fill="none" xmlns="http://www.w3.org/2000/svg">
<path fill-rule="evenodd" clip-rule="evenodd" d="M14.1525 1.38786C12.2444 2.74754 11 4.97845 11 7.5C11 8.70342 11.2834 9.84064 11.7872 10.8486C11.3743 10.9476 10.9433 11 10.5 11C7.46243 11 5 8.53757 5 5.5C5 2.46243 7.46243 0 10.5 0C11.9018 0 13.1812 0.524454 14.1525 1.38786Z" fill="#2CE272"/>
<path fill-rule="evenodd" clip-rule="evenodd" d="M9.5 13C4.25329 13 0 17.2533 0 22.5H6.36232C7.40712 18.2586 10.617 14.8693 14.7526 13.5714C13.738 13.2017 12.6425 13 11.5 13H9.5Z" fill="#2CE272"/>
<circle cx="18.5" cy="7.5" r="5.5" fill="#2CE272"/>
<path d="M8 25C8 19.4772 12.4772 15 18 15H19C24.5228 15 29 19.4772 29 25H8Z" fill="#2CE272"/>
</svg>
