<svg width="576" height="278" viewBox="0 0 576 278" fill="none" xmlns="http://www.w3.org/2000/svg">
<rect x="44" width="532" height="278" rx="16" fill="#211444"/>
<path d="M78.6426 42.2695C78.6426 41.7161 78.4473 41.293 78.0566 41C77.666 40.7005 76.9629 40.388 75.9473 40.0625C74.9316 39.7305 74.1276 39.4049 73.5352 39.0859C71.9206 38.2135 71.1133 37.0384 71.1133 35.5605C71.1133 34.7923 71.3281 34.1087 71.7578 33.5098C72.194 32.9043 72.8158 32.4323 73.623 32.0938C74.4368 31.7552 75.3483 31.5859 76.3574 31.5859C77.373 31.5859 78.278 31.7715 79.0723 32.1426C79.8665 32.5072 80.4818 33.0247 80.918 33.6953C81.3607 34.3659 81.582 35.1276 81.582 35.9805H78.6523C78.6523 35.3294 78.4473 34.8249 78.0371 34.4668C77.627 34.1022 77.0508 33.9199 76.3086 33.9199C75.5924 33.9199 75.0358 34.0729 74.6387 34.3789C74.2415 34.6784 74.043 35.0755 74.043 35.5703C74.043 36.0326 74.2741 36.4199 74.7363 36.7324C75.2051 37.0449 75.8919 37.3379 76.7969 37.6113C78.4635 38.1126 79.6777 38.7344 80.4395 39.4766C81.2012 40.2188 81.582 41.1432 81.582 42.25C81.582 43.4805 81.1165 44.4473 80.1855 45.1504C79.2546 45.847 78.0013 46.1953 76.4258 46.1953C75.332 46.1953 74.3359 45.9967 73.4375 45.5996C72.5391 45.196 71.8522 44.6458 71.377 43.9492C70.9082 43.2526 70.6738 42.4453 70.6738 41.5273H73.6133C73.6133 43.0964 74.5508 43.8809 76.4258 43.8809C77.1224 43.8809 77.666 43.7409 78.0566 43.4609C78.4473 43.1745 78.6426 42.7773 78.6426 42.2695ZM87.2676 32.8359V35.4336H89.0742V37.5039H87.2676V42.7773C87.2676 43.168 87.3424 43.4479 87.4922 43.6172C87.6419 43.7865 87.9284 43.8711 88.3516 43.8711C88.6641 43.8711 88.9408 43.8483 89.1816 43.8027V45.9414C88.6283 46.1107 88.0586 46.1953 87.4727 46.1953C85.4935 46.1953 84.4844 45.196 84.4453 43.1973V37.5039H82.9023V35.4336H84.4453V32.8359H87.2676ZM97.2695 46C97.1393 45.7461 97.0449 45.4303 96.9863 45.0527C96.3027 45.8145 95.4141 46.1953 94.3203 46.1953C93.2852 46.1953 92.4258 45.8958 91.7422 45.2969C91.0651 44.6979 90.7266 43.9427 90.7266 43.0312C90.7266 41.9115 91.14 41.0521 91.9668 40.4531C92.8001 39.8542 94.0013 39.5514 95.5703 39.5449H96.8691V38.9395C96.8691 38.4512 96.7422 38.0605 96.4883 37.7676C96.2409 37.4746 95.847 37.3281 95.3066 37.3281C94.8314 37.3281 94.457 37.4421 94.1836 37.6699C93.9167 37.8978 93.7832 38.2103 93.7832 38.6074H90.9609C90.9609 37.9954 91.1497 37.429 91.5273 36.9082C91.9049 36.3874 92.4388 35.9805 93.1289 35.6875C93.819 35.388 94.5938 35.2383 95.4531 35.2383C96.7552 35.2383 97.7871 35.5671 98.5488 36.2246C99.3171 36.8757 99.7012 37.7936 99.7012 38.9785V43.5586C99.7077 44.5612 99.8477 45.3197 100.121 45.834V46H97.2695ZM94.9355 44.0371C95.3522 44.0371 95.7363 43.946 96.0879 43.7637C96.4395 43.5749 96.6999 43.3242 96.8691 43.0117V41.1953H95.8145C94.4017 41.1953 93.6497 41.6836 93.5586 42.6602L93.5488 42.8262C93.5488 43.1777 93.6725 43.4674 93.9199 43.6953C94.1673 43.9232 94.5059 44.0371 94.9355 44.0371ZM105.748 32.8359V35.4336H107.555V37.5039H105.748V42.7773C105.748 43.168 105.823 43.4479 105.973 43.6172C106.122 43.7865 106.409 43.8711 106.832 43.8711C107.145 43.8711 107.421 43.8483 107.662 43.8027V45.9414C107.109 46.1107 106.539 46.1953 105.953 46.1953C103.974 46.1953 102.965 45.196 102.926 43.1973V37.5039H101.383V35.4336H102.926V32.8359H105.748ZM112.605 46H109.773V35.4336H112.605V46ZM109.607 32.6992C109.607 32.276 109.747 31.9277 110.027 31.6543C110.314 31.3809 110.701 31.2441 111.189 31.2441C111.671 31.2441 112.055 31.3809 112.342 31.6543C112.628 31.9277 112.771 32.276 112.771 32.6992C112.771 33.1289 112.625 33.4805 112.332 33.7539C112.046 34.0273 111.665 34.1641 111.189 34.1641C110.714 34.1641 110.33 34.0273 110.037 33.7539C109.751 33.4805 109.607 33.1289 109.607 32.6992ZM121.162 43.0801C121.162 42.735 120.99 42.4648 120.645 42.2695C120.306 42.0677 119.759 41.8887 119.004 41.7324C116.491 41.2051 115.234 40.1374 115.234 38.5293C115.234 37.5918 115.622 36.8105 116.396 36.1855C117.178 35.554 118.197 35.2383 119.453 35.2383C120.794 35.2383 121.865 35.554 122.666 36.1855C123.473 36.8171 123.877 37.6374 123.877 38.6465H121.055C121.055 38.2428 120.924 37.9108 120.664 37.6504C120.404 37.3835 119.997 37.25 119.443 37.25C118.968 37.25 118.6 37.3574 118.34 37.5723C118.079 37.7871 117.949 38.0605 117.949 38.3926C117.949 38.7051 118.096 38.959 118.389 39.1543C118.688 39.3431 119.189 39.5091 119.893 39.6523C120.596 39.7891 121.188 39.9453 121.67 40.1211C123.161 40.668 123.906 41.6152 123.906 42.9629C123.906 43.9264 123.493 44.7077 122.666 45.3066C121.839 45.8991 120.771 46.1953 119.463 46.1953C118.577 46.1953 117.79 46.0391 117.1 45.7266C116.416 45.4076 115.879 44.9746 115.488 44.4277C115.098 43.8743 114.902 43.2786 114.902 42.6406H117.578C117.604 43.1419 117.79 43.526 118.135 43.793C118.48 44.0599 118.942 44.1934 119.521 44.1934C120.062 44.1934 120.469 44.0924 120.742 43.8906C121.022 43.6823 121.162 43.4121 121.162 43.0801ZM129.611 32.8359V35.4336H131.418V37.5039H129.611V42.7773C129.611 43.168 129.686 43.4479 129.836 43.6172C129.986 43.7865 130.272 43.8711 130.695 43.8711C131.008 43.8711 131.285 43.8483 131.525 43.8027V45.9414C130.972 46.1107 130.402 46.1953 129.816 46.1953C127.837 46.1953 126.828 45.196 126.789 43.1973V37.5039H125.246V35.4336H126.789V32.8359H129.611ZM136.469 46H133.637V35.4336H136.469V46ZM133.471 32.6992C133.471 32.276 133.611 31.9277 133.891 31.6543C134.177 31.3809 134.564 31.2441 135.053 31.2441C135.535 31.2441 135.919 31.3809 136.205 31.6543C136.492 31.9277 136.635 32.276 136.635 32.6992C136.635 33.1289 136.488 33.4805 136.195 33.7539C135.909 34.0273 135.528 34.1641 135.053 34.1641C134.577 34.1641 134.193 34.0273 133.9 33.7539C133.614 33.4805 133.471 33.1289 133.471 32.6992ZM143.697 43.9199C144.218 43.9199 144.641 43.7767 144.967 43.4902C145.292 43.2038 145.462 42.8229 145.475 42.3477H148.121C148.115 43.0638 147.919 43.7214 147.535 44.3203C147.151 44.9128 146.624 45.375 145.953 45.707C145.289 46.0326 144.553 46.1953 143.746 46.1953C142.236 46.1953 141.044 45.7168 140.172 44.7598C139.299 43.7962 138.863 42.4681 138.863 40.7754V40.5898C138.863 38.9622 139.296 37.6634 140.162 36.6934C141.028 35.7233 142.216 35.2383 143.727 35.2383C145.048 35.2383 146.106 35.6159 146.9 36.3711C147.701 37.1198 148.108 38.1191 148.121 39.3691H145.475C145.462 38.8223 145.292 38.3796 144.967 38.041C144.641 37.696 144.212 37.5234 143.678 37.5234C143.02 37.5234 142.522 37.7643 142.184 38.2461C141.852 38.7214 141.686 39.4961 141.686 40.5703V40.8633C141.686 41.9505 141.852 42.7318 142.184 43.207C142.516 43.6823 143.02 43.9199 143.697 43.9199Z" fill="white"/>
<path d="M539 128.5C539 179.586 497.586 221 446.5 221C395.414 221 354 179.586 354 128.5C354 77.4137 395.414 36 446.5 36C497.586 36 539 77.4137 539 128.5ZM381.75 128.5C381.75 164.26 410.74 193.25 446.5 193.25C482.26 193.25 511.25 164.26 511.25 128.5C511.25 92.7396 482.26 63.75 446.5 63.75C410.74 63.75 381.75 92.7396 381.75 128.5Z" fill="white" fill-opacity="0.07"/>
<path d="M545.593 153.882C542.194 166.567 536.33 178.458 528.335 188.876C520.341 199.295 510.373 208.036 499 214.603C487.627 221.169 475.072 225.43 462.053 227.144C449.033 228.859 435.803 227.991 423.118 224.593L436.059 176.296C442.401 177.996 449.016 178.429 455.526 177.572C462.036 176.715 468.314 174.584 474 171.301C479.686 168.018 484.67 163.647 488.668 158.438C492.665 153.229 495.597 147.283 497.296 140.941L545.593 153.882Z" fill="#FF5151"/>
<path d="M449 228C435.868 228 422.864 225.413 410.732 220.388C398.599 215.362 387.575 207.997 378.289 198.711C369.003 189.425 361.638 178.401 356.612 166.268C352.865 157.222 350.474 147.691 349.5 137.983C348.948 132.488 353.477 128 359 128H389C394.523 128 398.899 132.521 399.997 137.934C400.634 141.076 401.573 144.158 402.806 147.134C405.319 153.2 409.002 158.712 413.645 163.355C418.288 167.998 423.8 171.681 429.866 174.194C435.932 176.707 442.434 178 449 178L449 228Z" fill="#2CE272"/>
<path d="M449 38C449 32.4772 453.488 27.9482 458.983 28.4996C471.303 29.7357 483.316 33.2521 494.399 38.8993C508.46 46.0638 520.626 56.4543 529.902 69.2215C539.178 81.9886 545.3 96.7698 547.769 112.357C550.238 127.943 548.982 143.893 544.106 158.902L496.553 143.451C498.991 135.947 499.619 127.972 498.384 120.178C497.15 112.385 494.089 104.994 489.451 98.6107C484.813 92.2272 478.73 87.0319 471.7 83.4497C467.652 81.3872 463.356 79.8932 458.934 78.9967C453.521 77.8994 449 73.5228 449 68V38Z" fill="#61587A"/>
<rect x="420" y="248" width="10" height="10" rx="5" fill="#61587A"/>
<rect x="444" y="248" width="10" height="10" rx="5" fill="#FF5151"/>
<rect x="468" y="248" width="10" height="10" rx="5" fill="#2CE272"/>
<path d="M421.299 128.229C421.299 126.757 421.494 125.344 421.885 123.99C422.282 122.636 422.871 121.406 423.652 120.299C424.434 119.192 425.244 118.411 426.084 117.955L426.455 119.146C425.505 119.876 424.723 120.989 424.111 122.486C423.506 123.984 423.174 125.66 423.115 127.516L423.105 128.346C423.105 130.859 423.564 133.04 424.482 134.889C425.036 135.995 425.693 136.861 426.455 137.486L426.084 138.59C425.218 138.108 424.391 137.301 423.604 136.168C422.067 133.954 421.299 131.308 421.299 128.229ZM437.697 120.797L431.809 134H429.914L435.783 121.266H428.088V119.781H437.697V120.797ZM441.078 126.871L441.801 119.781H449.086V121.451H443.334L442.904 125.328C443.601 124.918 444.392 124.713 445.277 124.713C446.573 124.713 447.602 125.143 448.363 126.002C449.125 126.855 449.506 128.01 449.506 129.469C449.506 130.934 449.109 132.089 448.314 132.936C447.527 133.775 446.423 134.195 445.004 134.195C443.747 134.195 442.722 133.847 441.928 133.15C441.133 132.454 440.681 131.49 440.57 130.26H442.279C442.39 131.074 442.68 131.689 443.148 132.105C443.617 132.516 444.236 132.721 445.004 132.721C445.844 132.721 446.501 132.434 446.977 131.861C447.458 131.288 447.699 130.497 447.699 129.488C447.699 128.538 447.439 127.776 446.918 127.203C446.404 126.624 445.717 126.334 444.857 126.334C444.07 126.334 443.451 126.507 443.002 126.852L442.523 127.242L441.078 126.871ZM451.822 122.516C451.822 121.663 452.092 120.96 452.633 120.406C453.18 119.853 453.88 119.576 454.732 119.576C455.598 119.576 456.298 119.856 456.832 120.416C457.372 120.969 457.643 121.689 457.643 122.574V123.268C457.643 124.127 457.369 124.83 456.822 125.377C456.282 125.917 455.592 126.188 454.752 126.188C453.906 126.188 453.206 125.917 452.652 125.377C452.099 124.83 451.822 124.104 451.822 123.199V122.516ZM453.17 123.268C453.17 123.775 453.313 124.195 453.6 124.527C453.886 124.853 454.27 125.016 454.752 125.016C455.214 125.016 455.585 124.856 455.865 124.537C456.152 124.218 456.295 123.782 456.295 123.229V122.516C456.295 122.008 456.155 121.588 455.875 121.256C455.595 120.924 455.214 120.758 454.732 120.758C454.251 120.758 453.87 120.924 453.59 121.256C453.31 121.588 453.17 122.021 453.17 122.555V123.268ZM458.746 130.514C458.746 129.661 459.016 128.961 459.557 128.414C460.104 127.861 460.803 127.584 461.656 127.584C462.509 127.584 463.209 127.857 463.756 128.404C464.303 128.951 464.576 129.677 464.576 130.582V131.275C464.576 132.128 464.303 132.831 463.756 133.385C463.215 133.932 462.522 134.205 461.676 134.205C460.829 134.205 460.13 133.935 459.576 133.395C459.023 132.848 458.746 132.122 458.746 131.217V130.514ZM460.094 131.275C460.094 131.79 460.237 132.213 460.523 132.545C460.81 132.87 461.194 133.033 461.676 133.033C462.145 133.033 462.519 132.874 462.799 132.555C463.079 132.229 463.219 131.79 463.219 131.236V130.514C463.219 129.999 463.076 129.579 462.789 129.254C462.509 128.928 462.132 128.766 461.656 128.766C461.194 128.766 460.816 128.928 460.523 129.254C460.237 129.573 460.094 130.006 460.094 130.553V131.275ZM455.162 132.926L454.137 132.281L461.08 121.168L462.105 121.812L455.162 132.926ZM476.943 128.326C476.943 129.778 476.751 131.171 476.367 132.506C475.99 133.834 475.407 135.061 474.619 136.188C473.838 137.314 473.018 138.115 472.158 138.59L471.777 137.486C472.78 136.718 473.584 135.527 474.189 133.912C474.801 132.291 475.114 130.494 475.127 128.521V128.209C475.127 126.842 474.984 125.572 474.697 124.4C474.411 123.222 474.01 122.167 473.496 121.236C472.988 120.305 472.415 119.579 471.777 119.059L472.158 117.955C473.018 118.43 473.835 119.225 474.609 120.338C475.391 121.451 475.973 122.678 476.357 124.02C476.748 125.361 476.943 126.796 476.943 128.326Z" fill="white"/>
<rect y="86" width="218" height="68" rx="16" fill="#2CE272"/>
<rect x="0.5" y="86.5" width="217" height="67" rx="15.5" stroke="#352954" stroke-opacity="0.39"/>
<rect x="66" y="102" width="92" height="14" rx="7" fill="white" fill-opacity="0.6"/>
<rect x="66" y="132" width="70" height="6" rx="3" fill="white" fill-opacity="0.4"/>
<rect x="234" y="26" width="78.1714" height="36" rx="16" fill="#0E0034"/>
<path d="M250.264 49H248.734V41.6304L246.373 42.4937V41.1606L250.169 39.7578H250.264V49ZM259.855 49H253.647V47.9526L256.656 44.6709C256.91 44.3874 257.122 44.1377 257.291 43.9219C257.465 43.7018 257.602 43.5008 257.704 43.3188C257.805 43.1369 257.877 42.9676 257.919 42.811C257.962 42.6545 257.983 42.4958 257.983 42.335C257.983 42.1234 257.949 41.9287 257.881 41.751C257.818 41.569 257.725 41.4146 257.602 41.2876C257.484 41.1564 257.338 41.0549 257.164 40.9829C256.995 40.911 256.804 40.875 256.593 40.875C256.043 40.875 255.636 41.0252 255.374 41.3257C255.116 41.6261 254.987 42.0409 254.987 42.5698H253.463C253.463 42.1678 253.535 41.7891 253.679 41.4336C253.827 41.0739 254.037 40.7607 254.308 40.4941C254.583 40.2275 254.915 40.0181 255.304 39.8657C255.694 39.7091 256.132 39.6309 256.618 39.6309C257.075 39.6309 257.481 39.6965 257.837 39.8276C258.192 39.9588 258.493 40.1429 258.738 40.3799C258.984 40.6126 259.17 40.8898 259.297 41.2114C259.424 41.533 259.487 41.8864 259.487 42.2715C259.487 42.5592 259.441 42.8385 259.348 43.1094C259.255 43.376 259.125 43.6426 258.96 43.9092C258.795 44.1758 258.599 44.4445 258.37 44.7153C258.142 44.9819 257.894 45.257 257.627 45.5405L255.533 47.7876H259.855V49ZM263.867 48.0923C263.867 47.9442 263.89 47.8045 263.937 47.6733C263.988 47.5422 264.06 47.43 264.153 47.3369C264.246 47.2396 264.36 47.1634 264.496 47.1084C264.635 47.0534 264.794 47.0259 264.972 47.0259C265.149 47.0259 265.306 47.0534 265.441 47.1084C265.581 47.1634 265.697 47.2396 265.791 47.3369C265.888 47.43 265.96 47.5422 266.006 47.6733C266.057 47.8045 266.083 47.9442 266.083 48.0923C266.083 48.2404 266.057 48.3779 266.006 48.5049C265.96 48.6276 265.888 48.7355 265.791 48.8286C265.697 48.9217 265.581 48.9937 265.441 49.0444C265.306 49.0994 265.149 49.127 264.972 49.127C264.794 49.127 264.635 49.0994 264.496 49.0444C264.36 48.9937 264.246 48.9217 264.153 48.8286C264.06 48.7355 263.988 48.6276 263.937 48.5049C263.89 48.3779 263.867 48.2404 263.867 48.0923ZM263.867 42.6904C263.867 42.5423 263.89 42.4027 263.937 42.2715C263.988 42.1403 264.06 42.0282 264.153 41.9351C264.246 41.8377 264.36 41.7616 264.496 41.7065C264.635 41.6515 264.794 41.624 264.972 41.624C265.149 41.624 265.306 41.6515 265.441 41.7065C265.581 41.7616 265.697 41.8377 265.791 41.9351C265.888 42.0282 265.96 42.1403 266.006 42.2715C266.057 42.4027 266.083 42.5423 266.083 42.6904C266.083 42.8385 266.057 42.9761 266.006 43.103C265.96 43.2257 265.888 43.3337 265.791 43.4268C265.697 43.5199 265.581 43.5939 265.441 43.6489C265.306 43.6997 265.149 43.7251 264.972 43.7251C264.794 43.7251 264.635 43.6997 264.496 43.6489C264.36 43.5939 264.246 43.5199 264.153 43.4268C264.06 43.3337 263.988 43.2257 263.937 43.103C263.89 42.9761 263.867 42.8385 263.867 42.6904ZM271.161 43.6934H272.068C272.335 43.6934 272.568 43.6595 272.767 43.5918C272.965 43.5199 273.131 43.4204 273.262 43.2935C273.393 43.1665 273.49 43.0163 273.554 42.8428C273.621 42.665 273.655 42.4704 273.655 42.2588C273.655 41.8102 273.537 41.4653 273.3 41.2241C273.067 40.9787 272.714 40.856 272.24 40.856C272.032 40.856 271.84 40.8877 271.662 40.9512C271.489 41.0104 271.336 41.0972 271.205 41.2114C271.078 41.3257 270.979 41.4632 270.907 41.624C270.835 41.7848 270.799 41.9668 270.799 42.1699H269.282C269.282 41.806 269.354 41.4696 269.498 41.1606C269.646 40.8517 269.849 40.5851 270.107 40.3608C270.369 40.1323 270.68 39.9546 271.04 39.8276C271.4 39.6965 271.793 39.6309 272.221 39.6309C272.657 39.6309 273.056 39.688 273.42 39.8022C273.784 39.9123 274.095 40.0773 274.354 40.2974C274.612 40.5174 274.813 40.7925 274.957 41.1226C275.1 41.4484 275.172 41.8271 275.172 42.2588C275.172 42.4408 275.145 42.627 275.09 42.8174C275.035 43.0078 274.95 43.1919 274.836 43.3696C274.726 43.5474 274.584 43.7145 274.411 43.8711C274.241 44.0234 274.04 44.1525 273.808 44.2583C274.087 44.3556 274.322 44.4805 274.512 44.6328C274.703 44.7852 274.857 44.9565 274.976 45.147C275.094 45.3332 275.179 45.5342 275.229 45.75C275.28 45.9658 275.306 46.1859 275.306 46.4102C275.306 46.8418 275.227 47.2269 275.071 47.5654C274.914 47.904 274.696 48.1896 274.417 48.4224C274.142 48.6509 273.816 48.8265 273.439 48.9492C273.063 49.0677 272.657 49.127 272.221 49.127C271.819 49.127 271.436 49.0719 271.072 48.9619C270.708 48.8519 270.386 48.689 270.107 48.4731C269.832 48.2531 269.612 47.9823 269.447 47.6606C269.282 47.3348 269.199 46.9582 269.199 46.5308H270.716C270.716 46.7339 270.752 46.9222 270.824 47.0957C270.896 47.265 270.998 47.411 271.129 47.5337C271.264 47.6522 271.425 47.7453 271.611 47.813C271.798 47.8807 272.007 47.9146 272.24 47.9146C272.722 47.9146 273.101 47.7876 273.376 47.5337C273.655 47.2756 273.795 46.9032 273.795 46.4165C273.795 46.1499 273.755 45.9214 273.674 45.731C273.594 45.5363 273.478 45.3776 273.325 45.2549C273.177 45.1279 272.997 45.0348 272.786 44.9756C272.574 44.9163 272.335 44.8867 272.068 44.8867H271.161V43.6934ZM278.632 47.7432C279.182 47.7432 279.643 47.6797 280.016 47.5527C280.392 47.4215 280.697 47.2417 280.93 47.0132C281.162 46.7847 281.334 46.516 281.444 46.207C281.558 45.8939 281.63 45.5553 281.66 45.1914C281.567 45.2972 281.459 45.3966 281.336 45.4897C281.217 45.5786 281.082 45.659 280.93 45.731C280.782 45.7987 280.617 45.8537 280.435 45.896C280.257 45.9341 280.06 45.9531 279.844 45.9531C279.391 45.9531 278.998 45.8685 278.664 45.6992C278.329 45.5257 278.052 45.2972 277.832 45.0137C277.612 44.7259 277.447 44.3958 277.337 44.0234C277.231 43.651 277.178 43.2617 277.178 42.8555C277.178 42.4111 277.244 41.9943 277.375 41.605C277.506 41.2114 277.699 40.8687 277.953 40.5767C278.207 40.2847 278.518 40.054 278.886 39.8848C279.258 39.7155 279.681 39.6309 280.155 39.6309C280.667 39.6309 281.112 39.7324 281.488 39.9355C281.869 40.1387 282.184 40.4116 282.434 40.7544C282.688 41.0972 282.876 41.4971 282.999 41.9541C283.126 42.4069 283.189 42.8851 283.189 43.3887V43.8838C283.189 44.3239 283.16 44.7576 283.101 45.1851C283.046 45.6082 282.948 46.0124 282.809 46.3975C282.673 46.7783 282.491 47.1296 282.263 47.4512C282.038 47.7728 281.757 48.0521 281.418 48.2891C281.084 48.5218 280.686 48.7059 280.225 48.8413C279.768 48.9725 279.239 49.0381 278.638 49.0381H278.518V47.7432H278.632ZM280.155 44.7534C280.329 44.7534 280.494 44.7259 280.65 44.6709C280.811 44.6159 280.957 44.5397 281.088 44.4424C281.22 44.3451 281.336 44.2287 281.438 44.0933C281.539 43.9578 281.619 43.8097 281.679 43.6489V43.1475C281.679 42.7751 281.636 42.4471 281.552 42.1636C281.471 41.8758 281.361 41.6367 281.222 41.4463C281.082 41.2516 280.919 41.1056 280.733 41.0083C280.551 40.911 280.358 40.8623 280.155 40.8623C279.918 40.8623 279.709 40.9131 279.527 41.0146C279.345 41.1162 279.19 41.2559 279.063 41.4336C278.941 41.6071 278.846 41.8123 278.778 42.0493C278.714 42.2863 278.683 42.5402 278.683 42.811C278.683 43.0649 278.712 43.3083 278.771 43.541C278.831 43.7738 278.92 43.9811 279.038 44.1631C279.161 44.3408 279.315 44.4847 279.501 44.5947C279.688 44.7005 279.906 44.7534 280.155 44.7534ZM289.639 46.8545H286.75L286.116 49H284.542L287.544 39.7578H288.883L291.829 49H290.261L289.639 46.8545ZM287.138 45.5532H289.258L288.21 41.9287L287.138 45.5532ZM294.768 39.7578L295.917 43.7505L297.186 39.7578H299.078V49H297.643V45.8262L297.732 41.7764L296.31 46.207H295.51L294.222 41.9287L294.311 45.8262V49H292.876V39.7578H294.768Z" fill="white"/>
<rect x="92" y="179" width="218" height="68" rx="16" fill="#61587A"/>
<rect x="92.5" y="179.5" width="217" height="67" rx="15.5" stroke="#352954" stroke-opacity="0.39"/>
<rect x="158" y="225" width="76" height="6" rx="3" fill="white" fill-opacity="0.4"/>
<rect x="158" y="195" width="98" height="14" rx="7" fill="white" fill-opacity="0.6"/>
</svg>
